<svg width="1280" height="720" viewBox="0 0 1280 720" fill="none" xmlns="http://www.w3.org/2000/svg">
<rect width="1280" height="720" fill="#121214"/>
<path d="M567.578 320.453V331H520.891V322L542.969 298.328C545.188 295.859 546.938 293.688 548.219 291.812C549.5 289.906 550.422 288.203 550.984 286.703C551.578 285.172 551.875 283.719 551.875 282.344C551.875 280.281 551.531 278.516 550.844 277.047C550.156 275.547 549.141 274.391 547.797 273.578C546.484 272.766 544.859 272.359 542.922 272.359C540.859 272.359 539.078 272.859 537.578 273.859C536.109 274.859 534.984 276.25 534.203 278.031C533.453 279.812 533.078 281.828 533.078 284.078H519.531C519.531 280.016 520.5 276.297 522.438 272.922C524.375 269.516 527.109 266.812 530.641 264.812C534.172 262.781 538.359 261.766 543.203 261.766C547.984 261.766 552.016 262.547 555.297 264.109C558.609 265.641 561.109 267.859 562.797 270.766C564.516 273.641 565.375 277.078 565.375 281.078C565.375 283.328 565.016 285.531 564.297 287.688C563.578 289.812 562.547 291.938 561.203 294.062C559.891 296.156 558.297 298.281 556.422 300.438C554.547 302.594 552.469 304.828 550.188 307.141L538.328 320.453H567.578ZM588.719 299.922L577.938 297.344L581.828 262.75H620.172V273.672H592.938L591.25 288.812C592.156 288.281 593.531 287.719 595.375 287.125C597.219 286.5 599.281 286.188 601.562 286.188C604.875 286.188 607.812 286.703 610.375 287.734C612.938 288.766 615.109 290.266 616.891 292.234C618.703 294.203 620.078 296.609 621.016 299.453C621.953 302.297 622.422 305.516 622.422 309.109C622.422 312.141 621.953 315.031 621.016 317.781C620.078 320.5 618.656 322.938 616.75 325.094C614.844 327.219 612.453 328.891 609.578 330.109C606.703 331.328 603.297 331.938 599.359 331.938C596.422 331.938 593.578 331.5 590.828 330.625C588.109 329.75 585.656 328.453 583.469 326.734C581.312 325.016 579.578 322.938 578.266 320.5C576.984 318.031 576.312 315.219 576.25 312.062H589.656C589.844 314 590.344 315.672 591.156 317.078C592 318.453 593.109 319.516 594.484 320.266C595.859 321.016 597.469 321.391 599.312 321.391C601.031 321.391 602.5 321.062 603.719 320.406C604.938 319.75 605.922 318.844 606.672 317.688C607.422 316.5 607.969 315.125 608.312 313.562C608.688 311.969 608.875 310.25 608.875 308.406C608.875 306.562 608.656 304.891 608.219 303.391C607.781 301.891 607.109 300.594 606.203 299.5C605.297 298.406 604.141 297.562 602.734 296.969C601.359 296.375 599.75 296.078 597.906 296.078C595.406 296.078 593.469 296.469 592.094 297.25C590.75 298.031 589.625 298.922 588.719 299.922ZM632.219 324.484C632.219 322.484 632.906 320.812 634.281 319.469C635.688 318.125 637.547 317.453 639.859 317.453C642.172 317.453 644.016 318.125 645.391 319.469C646.797 320.812 647.5 322.484 647.5 324.484C647.5 326.484 646.797 328.156 645.391 329.5C644.016 330.844 642.172 331.516 639.859 331.516C637.547 331.516 635.688 330.844 634.281 329.5C632.906 328.156 632.219 326.484 632.219 324.484ZM632.219 285.812C632.219 283.812 632.906 282.141 634.281 280.797C635.688 279.453 637.547 278.781 639.859 278.781C642.172 278.781 644.016 279.453 645.391 280.797C646.797 282.141 647.5 283.812 647.5 285.812C647.5 287.812 646.797 289.484 645.391 290.828C644.016 292.172 642.172 292.844 639.859 292.844C637.547 292.844 635.688 292.172 634.281 290.828C632.906 289.484 632.219 287.812 632.219 285.812ZM704.172 290.875V302.688C704.172 307.812 703.625 312.234 702.531 315.953C701.438 319.641 699.859 322.672 697.797 325.047C695.766 327.391 693.344 329.125 690.531 330.25C687.719 331.375 684.594 331.938 681.156 331.938C678.406 331.938 675.844 331.594 673.469 330.906C671.094 330.188 668.953 329.078 667.047 327.578C665.172 326.078 663.547 324.188 662.172 321.906C660.828 319.594 659.797 316.844 659.078 313.656C658.359 310.469 658 306.812 658 302.688V290.875C658 285.75 658.547 281.359 659.641 277.703C660.766 274.016 662.344 271 664.375 268.656C666.438 266.312 668.875 264.594 671.688 263.5C674.5 262.375 677.625 261.812 681.062 261.812C683.812 261.812 686.359 262.172 688.703 262.891C691.078 263.578 693.219 264.656 695.125 266.125C697.031 267.594 698.656 269.484 700 271.797C701.344 274.078 702.375 276.812 703.094 280C703.812 283.156 704.172 286.781 704.172 290.875ZM690.625 304.469V289.047C690.625 286.578 690.484 284.422 690.203 282.578C689.953 280.734 689.562 279.172 689.031 277.891C688.5 276.578 687.844 275.516 687.062 274.703C686.281 273.891 685.391 273.297 684.391 272.922C683.391 272.547 682.281 272.359 681.062 272.359C679.531 272.359 678.172 272.656 676.984 273.25C675.828 273.844 674.844 274.797 674.031 276.109C673.219 277.391 672.594 279.109 672.156 281.266C671.75 283.391 671.547 285.984 671.547 289.047V304.469C671.547 306.938 671.672 309.109 671.922 310.984C672.203 312.859 672.609 314.469 673.141 315.812C673.703 317.125 674.359 318.203 675.109 319.047C675.891 319.859 676.781 320.453 677.781 320.828C678.812 321.203 679.938 321.391 681.156 321.391C682.656 321.391 683.984 321.094 685.141 320.5C686.328 319.875 687.328 318.906 688.141 317.594C688.984 316.25 689.609 314.5 690.016 312.344C690.422 310.188 690.625 307.562 690.625 304.469ZM759.297 290.875V302.688C759.297 307.812 758.75 312.234 757.656 315.953C756.562 319.641 754.984 322.672 752.922 325.047C750.891 327.391 748.469 329.125 745.656 330.25C742.844 331.375 739.719 331.938 736.281 331.938C733.531 331.938 730.969 331.594 728.594 330.906C726.219 330.188 724.078 329.078 722.172 327.578C720.297 326.078 718.672 324.188 717.297 321.906C715.953 319.594 714.922 316.844 714.203 313.656C713.484 310.469 713.125 306.812 713.125 302.688V290.875C713.125 285.75 713.672 281.359 714.766 277.703C715.891 274.016 717.469 271 719.5 268.656C721.562 266.312 724 264.594 726.812 263.5C729.625 262.375 732.75 261.812 736.188 261.812C738.938 261.812 741.484 262.172 743.828 262.891C746.203 263.578 748.344 264.656 750.25 266.125C752.156 267.594 753.781 269.484 755.125 271.797C756.469 274.078 757.5 276.812 758.219 280C758.938 283.156 759.297 286.781 759.297 290.875ZM745.75 304.469V289.047C745.75 286.578 745.609 284.422 745.328 282.578C745.078 280.734 744.688 279.172 744.156 277.891C743.625 276.578 742.969 275.516 742.188 274.703C741.406 273.891 740.516 273.297 739.516 272.922C738.516 272.547 737.406 272.359 736.188 272.359C734.656 272.359 733.297 272.656 732.109 273.25C730.953 273.844 729.969 274.797 729.156 276.109C728.344 277.391 727.719 279.109 727.281 281.266C726.875 283.391 726.672 285.984 726.672 289.047V304.469C726.672 306.938 726.797 309.109 727.047 310.984C727.328 312.859 727.734 314.469 728.266 315.812C728.828 317.125 729.484 318.203 730.234 319.047C731.016 319.859 731.906 320.453 732.906 320.828C733.938 321.203 735.062 321.391 736.281 321.391C737.781 321.391 739.109 321.094 740.266 320.5C741.453 319.875 742.453 318.906 743.266 317.594C744.109 316.25 744.734 314.5 745.141 312.344C745.547 310.188 745.75 307.562 745.75 304.469Z" fill="#F8F8FC"/>
<rect x="488" y="371" width="304" height="108" rx="54" fill="#242424"/>
<path d="M560 399C554.858 399 549.831 400.525 545.555 403.382C541.28 406.239 537.947 410.299 535.979 415.05C534.011 419.801 533.496 425.029 534.5 430.072C535.503 435.116 537.979 439.749 541.615 443.385C545.251 447.021 549.884 449.497 554.928 450.5C559.971 451.504 565.199 450.989 569.95 449.021C574.701 447.053 578.761 443.721 581.618 439.445C584.475 435.169 586 430.142 586 425C585.993 418.107 583.251 411.498 578.377 406.623C573.502 401.749 566.893 399.007 560 399ZM560 447C555.649 447 551.395 445.71 547.777 443.292C544.16 440.875 541.34 437.439 539.675 433.419C538.01 429.399 537.574 424.976 538.423 420.708C539.272 416.44 541.367 412.52 544.444 409.444C547.52 406.367 551.44 404.272 555.708 403.423C559.976 402.574 564.399 403.01 568.419 404.675C572.439 406.34 575.875 409.16 578.292 412.777C580.71 416.395 582 420.649 582 425C581.993 430.833 579.673 436.425 575.549 440.549C571.425 444.673 565.833 446.993 560 447ZM569.11 423.335L557.11 415.335C556.809 415.134 556.459 415.019 556.097 415.001C555.735 414.984 555.375 415.065 555.056 415.235C554.737 415.406 554.47 415.661 554.284 415.972C554.098 416.282 554 416.638 554 417V433C554 433.362 554.098 433.718 554.284 434.028C554.47 434.339 554.737 434.594 555.056 434.765C555.375 434.935 555.735 435.016 556.097 434.999C556.459 434.981 556.809 434.866 557.11 434.665L569.11 426.665C569.384 426.482 569.609 426.235 569.765 425.944C569.921 425.654 570.002 425.33 570.002 425C570.002 424.67 569.921 424.346 569.765 424.056C569.609 423.765 569.384 423.518 569.11 423.335ZM558 429.263V420.75L564.395 425L558 429.263Z" fill="#42D3FF"/>
<path d="M640 403C635.253 403 630.613 404.408 626.666 407.045C622.72 409.682 619.643 413.43 617.827 417.816C616.01 422.201 615.535 427.027 616.461 431.682C617.387 436.338 619.673 440.614 623.029 443.971C626.386 447.327 630.662 449.613 635.318 450.539C639.973 451.465 644.799 450.99 649.184 449.173C653.57 447.357 657.318 444.28 659.955 440.334C662.592 436.387 664 431.747 664 427C663.993 420.637 661.462 414.537 656.963 410.037C652.463 405.538 646.363 403.007 640 403ZM640 447C636.044 447 632.178 445.827 628.889 443.629C625.6 441.432 623.036 438.308 621.522 434.654C620.009 430.999 619.613 426.978 620.384 423.098C621.156 419.219 623.061 415.655 625.858 412.858C628.655 410.061 632.219 408.156 636.098 407.384C639.978 406.613 643.999 407.009 647.654 408.522C651.308 410.036 654.432 412.6 656.629 415.889C658.827 419.178 660 423.044 660 427C659.994 432.303 657.885 437.386 654.136 441.136C650.386 444.885 645.303 446.994 640 447ZM651.415 415.585C651.601 415.771 651.748 415.991 651.849 416.234C651.95 416.477 652.002 416.737 652.002 417C652.002 417.263 651.95 417.523 651.849 417.766C651.748 418.009 651.601 418.229 651.415 418.415L641.415 428.415C641.229 428.601 641.009 428.748 640.766 428.849C640.523 428.949 640.263 429.001 640 429.001C639.737 429.001 639.477 428.949 639.234 428.849C638.991 428.748 638.771 428.601 638.585 428.415C638.399 428.229 638.252 428.009 638.151 427.766C638.051 427.523 637.999 427.263 637.999 427C637.999 426.737 638.051 426.477 638.151 426.234C638.252 425.991 638.399 425.771 638.585 425.585L648.585 415.585C648.771 415.399 648.991 415.252 649.234 415.151C649.477 415.05 649.737 414.998 650 414.998C650.263 414.998 650.523 415.05 650.766 415.151C651.009 415.252 651.229 415.399 651.415 415.585ZM632 397C632 396.47 632.211 395.961 632.586 395.586C632.961 395.211 633.47 395 634 395H646C646.53 395 647.039 395.211 647.414 395.586C647.789 395.961 648 396.47 648 397C648 397.53 647.789 398.039 647.414 398.414C647.039 398.789 646.53 399 646 399H634C633.47 399 632.961 398.789 632.586 398.414C632.211 398.039 632 397.53 632 397Z" fill="#F8F8FC"/>
<path d="M726.877 399.203C726.541 399.039 726.166 398.972 725.794 399.011C725.421 399.05 725.068 399.193 724.772 399.423L707.312 413H696C694.939 413 693.922 413.421 693.172 414.172C692.421 414.922 692 415.939 692 417V433C692 434.061 692.421 435.078 693.172 435.828C693.922 436.579 694.939 437 696 437H707.312L724.772 450.578C725.068 450.807 725.422 450.949 725.794 450.988C726.166 451.026 726.542 450.96 726.878 450.795C727.214 450.631 727.498 450.376 727.696 450.058C727.894 449.741 728 449.374 728 449V401C728 400.625 727.895 400.258 727.696 399.94C727.498 399.623 727.214 399.367 726.877 399.203ZM696 417H706V433H696V417ZM724 444.91L710 434.023V415.978L724 405.09V444.91Z" fill="#F8F8FC"/>
<g clip-path="url(#clip0_1_23)">
<path d="M1230.5 36V34C1230.5 33.6022 1230.66 33.2206 1230.94 32.9393C1231.22 32.658 1231.6 32.5 1232 32.5C1232.4 32.5 1232.78 32.658 1233.06 32.9393C1233.34 33.2206 1233.5 33.6022 1233.5 34V36C1233.5 36.3978 1233.34 36.7794 1233.06 37.0607C1232.78 37.342 1232.4 37.5 1232 37.5C1231.6 37.5 1231.22 37.342 1230.94 37.0607C1230.66 36.7794 1230.5 36.3978 1230.5 36ZM1240.5 48C1240.5 49.6811 1240 51.3245 1239.07 52.7223C1238.13 54.1202 1236.81 55.2096 1235.25 55.853C1233.7 56.4963 1231.99 56.6646 1230.34 56.3367C1228.69 56.0087 1227.18 55.1992 1225.99 54.0104C1224.8 52.8217 1223.99 51.3071 1223.66 49.6583C1223.34 48.0094 1223.5 46.3004 1224.15 44.7472C1224.79 43.194 1225.88 41.8665 1227.28 40.9325C1228.68 39.9985 1230.32 39.5 1232 39.5C1234.25 39.5023 1236.41 40.3986 1238.01 41.9922C1239.6 43.5857 1240.5 45.7464 1240.5 48ZM1237.5 48C1237.5 46.9122 1237.18 45.8488 1236.57 44.9444C1235.97 44.0399 1235.11 43.3349 1234.1 42.9187C1233.1 42.5024 1231.99 42.3935 1230.93 42.6057C1229.86 42.8179 1228.88 43.3417 1228.11 44.1109C1227.34 44.8801 1226.82 45.8601 1226.61 46.927C1226.39 47.9939 1226.5 49.0998 1226.92 50.1048C1227.33 51.1098 1228.04 51.9687 1228.94 52.5731C1229.85 53.1774 1230.91 53.5 1232 53.5C1233.46 53.4983 1234.86 52.9184 1235.89 51.8873C1236.92 50.8562 1237.5 49.4582 1237.5 48ZM1222.44 40.5612C1222.58 40.7008 1222.74 40.8115 1222.93 40.887C1223.11 40.9625 1223.3 41.0014 1223.5 41.0014C1223.7 41.0014 1223.89 40.9625 1224.08 40.887C1224.26 40.8115 1224.42 40.7008 1224.56 40.5612C1224.7 40.4217 1224.81 40.2561 1224.89 40.0738C1224.96 39.8915 1225 39.6961 1225 39.4988C1225 39.3014 1224.96 39.106 1224.89 38.9237C1224.81 38.7414 1224.7 38.5758 1224.56 38.4363L1223.06 36.9363C1222.78 36.6545 1222.4 36.4961 1222 36.4961C1221.6 36.4961 1221.22 36.6545 1220.94 36.9363C1220.66 37.218 1220.5 37.6002 1220.5 37.9988C1220.5 38.3973 1220.66 38.7795 1220.94 39.0613L1222.44 40.5612ZM1222.44 55.4363L1220.94 56.9363C1220.8 57.0758 1220.69 57.2414 1220.61 57.4237C1220.54 57.606 1220.5 57.8014 1220.5 57.9988C1220.5 58.1961 1220.54 58.3915 1220.61 58.5738C1220.69 58.7561 1220.8 58.9217 1220.94 59.0613C1221.22 59.343 1221.6 59.5014 1222 59.5014C1222.2 59.5014 1222.39 59.4625 1222.58 59.387C1222.76 59.3115 1222.92 59.2008 1223.06 59.0613L1224.56 57.5613C1224.85 57.2795 1225 56.8973 1225 56.4988C1225 56.1002 1224.85 55.718 1224.56 55.4363C1224.28 55.1545 1223.9 54.9961 1223.5 54.9961C1223.1 54.9961 1222.72 55.1545 1222.44 55.4363ZM1240.5 41C1240.7 41.0002 1240.89 40.9615 1241.07 40.8862C1241.26 40.8109 1241.42 40.7005 1241.56 40.5612L1243.06 39.0613C1243.2 38.9217 1243.31 38.7561 1243.39 38.5738C1243.46 38.3915 1243.5 38.1961 1243.5 37.9988C1243.5 37.8014 1243.46 37.606 1243.39 37.4237C1243.31 37.2414 1243.2 37.0758 1243.06 36.9363C1242.92 36.7967 1242.76 36.686 1242.57 36.6105C1242.39 36.535 1242.2 36.4961 1242 36.4961C1241.8 36.4961 1241.61 36.535 1241.42 36.6105C1241.24 36.686 1241.08 36.7967 1240.94 36.9363L1239.44 38.4363C1239.23 38.646 1239.08 38.9139 1239.02 39.2057C1238.96 39.4975 1238.99 39.8 1239.11 40.0749C1239.22 40.3497 1239.42 40.5845 1239.66 40.7492C1239.91 40.9139 1240.2 41.0012 1240.5 41ZM1241.56 55.4387C1241.28 55.157 1240.9 54.9986 1240.5 54.9986C1240.1 54.9986 1239.72 55.157 1239.44 55.4387C1239.15 55.7205 1239 56.1027 1239 56.5012C1239 56.8998 1239.15 57.282 1239.44 57.5637L1240.94 59.0637C1241.22 59.3455 1241.6 59.5039 1242 59.5039C1242.4 59.5039 1242.78 59.3455 1243.06 59.0637C1243.34 58.782 1243.5 58.3998 1243.5 58.0012C1243.5 57.6027 1243.34 57.2205 1243.06 56.9387L1241.56 55.4387ZM1221.5 48C1221.5 47.6022 1221.34 47.2206 1221.06 46.9393C1220.78 46.658 1220.4 46.5 1220 46.5H1218C1217.6 46.5 1217.22 46.658 1216.94 46.9393C1216.66 47.2206 1216.5 47.6022 1216.5 48C1216.5 48.3978 1216.66 48.7794 1216.94 49.0607C1217.22 49.342 1217.6 49.5 1218 49.5H1220C1220.4 49.5 1220.78 49.342 1221.06 49.0607C1221.34 48.7794 1221.5 48.3978 1221.5 48ZM1232 58.5C1231.6 58.5 1231.22 58.658 1230.94 58.9393C1230.66 59.2206 1230.5 59.6022 1230.5 60V62C1230.5 62.3978 1230.66 62.7794 1230.94 63.0607C1231.22 63.342 1231.6 63.5 1232 63.5C1232.4 63.5 1232.78 63.342 1233.06 63.0607C1233.34 62.7794 1233.5 62.3978 1233.5 62V60C1233.5 59.6022 1233.34 59.2206 1233.06 58.9393C1232.78 58.658 1232.4 58.5 1232 58.5ZM1246 46.5H1244C1243.6 46.5 1243.22 46.658 1242.94 46.9393C1242.66 47.2206 1242.5 47.6022 1242.5 48C1242.5 48.3978 1242.66 48.7794 1242.94 49.0607C1243.22 49.342 1243.6 49.5 1244 49.5H1246C1246.4 49.5 1246.78 49.342 1247.06 49.0607C1247.34 48.7794 1247.5 48.3978 1247.5 48C1247.5 47.6022 1247.34 47.2206 1247.06 46.9393C1246.78 46.658 1246.4 46.5 1246 46.5Z" fill="#F8F8FC"/>
</g>
<defs>
<clipPath id="clip0_1_23">
<rect width="32" height="32" fill="white" transform="translate(1216 32)"/>
</clipPath>
</defs>
</svg>
